PathFileType	4	(X/Y/Z)	AB12\squats_1.trc
DataRate	CameraRate	NumFrames	NumMarkers	Units	OrigDataRate	OrigDataStartFrame	OrigNumFrames
200.000000	200.000000	4	35	mm	200.000000	38	304
Frame#	Time	C7			LSHO			STRN			LASI			RASI			LPSI			RPSI			LGTR			RGTR			LTHC			LTHL			LTHR			LKNE			LMKNE			LSHC			LSHL			LSHR			LANK			LMANK			LMT1			LMT5			LCAL			RTHC			RTHL			RTHR			RKNE			RMKNE			RSHC			RSHL			RSHR			RANK			RMANK			RMT1			RMT5			RCAL			
		X1	Y1	Z1	X2	Y2	Z2	X3	Y3	Z3	X4	Y4	Z4	X5	Y5	Z5	X6	Y6	Z6	X7	Y7	Z7	X8	Y8	Z8	X9	Y9	Z9	X10	Y10	Z10	X11	Y11	Z11	X12	Y12	Z12	X13	Y13	Z13	X14	Y14	Z14	X15	Y15	Z15	X16	Y16	Z16	X17	Y17	Z17	X18	Y18	Z18	X19	Y19	Z19	X20	Y20	Z20	X21	Y21	Z21	X22	Y22	Z22	X23	Y23	Z23	X24	Y24	Z24	X25	Y25	Z25	X26	Y26	Z26	X27	Y27	Z27	X28	Y28	Z28	X29	Y29	Z29	X30	Y30	Z30	X31	Y31	Z31	X32	Y32	Z32	X33	Y33	Z33	X34	Y34	Z34	X35	Y35	Z35	

39	21.18	-3528.50561486151	1311.842258241963	2472.190060612741	-3577.815303579499	1259.696658702012	2592.273142481748	-3618.262286147928	1170.042434147299	2471.386046652868	-3424.74309475755	874.759612068229	2629.792023639969	-3423.91830913512	878.275535208667	2348.609514739004	-3238.291560579705	971.3407531223	2523.224215681043	-3233.641758544471	963.0385442027209	2433.175414868328	-3307.710589718876	866.150749697059	2699.256835951826	-3328.198568896294	828.3625813378493	2275.675319273724	-3430.721300946307	651.1224787942796	2715.998404251688	-3556.863070941451	613.3167241738113	2655.289280241985	-3423.971434918986	507.9247644128815	2624.725583363822	-3529.351027196316	455.4388493057893	2718.993231869982	-3548.401666458503	444.7479971929406	2588.861716181063	-3462.892346492076	294.4943737443024	2728.335103300151	-3491.58904082958	200.5437591802405	2682.892727587242	-3394.998613552067	199.3580449348049	2655.55103671303	-3405.133572224441	86.17513073224103	2709.795906957036	-3419.249174859328	82.11782159319972	2623.553177930063	-3544.918202740521	48.97750583238042	2663.9225099559	-3506.747394865284	41.58321357267377	2747.550907260322	-3330.016029597289	62.12529592745683	2675.398093043502	-3443.820862345238	494.1717813636606	2381.693564371149	-3415.982065102217	625.3515238907461	2284.269543064313	-3553.759782216726	627.5077107291778	2346.453080740487	-3525.121227734613	451.4336451238155	2289.134617741705	-3547.159658810969	427.4797845520216	2413.397672149305	-3385.23541641597	186.4885808319769	2346.412198791536	-3451.335926065745	293.7421561563337	2284.129697663651	-3488.846105029362	200.6059146006469	2327.622495039203	-3391.585795095699	93.82034504598759	2298.994279850639	-3412.452360278653	87.37046420434443	2383.609305906247	-3530.143006426776	53.26411968160864	2340.468263945917	-3494.160303530085	48.45797345610593	2267.657102877175	-3322.217210587502	71.36652084589755	2346.971141352014	
40	21.185	-3529.644558605943	1306.693576046394	2471.978790596228	-3578.978882916422	1254.634223359088	2592.082735606066	-3618.731428779613	1164.659033786326	2471.245013511857	-3423.941529820243	870.5926988243347	2629.646837084407	-3422.712100458217	874.4185550099768	2348.365450008997	-3237.565703981433	967.7169647148642	2523.471022359384	-3232.656269523884	959.3502104074133	2433.423519751784	-3307.033726764542	862.5054759826555	2699.511573215551	-3326.682388114066	824.5996813721431	2275.459195770824	-3431.044527860394	648.6522797963087	2716.219597512899	-3557.83968959294	612.4107927799485	2655.853374285487	-3426.194603697931	505.6294350591643	2624.869703690586	-3531.863497636275	454.4013689314892	2719.475501415719	-3551.08054655368	443.7644225371421	2589.311007757285	-3464.575697351773	294.0162945300773	2728.595540739191	-3492.587944696914	199.9109945026634	2683.031556794104	-3396.02746468228	199.4308418548137	2655.661601284602	-3405.305483400987	86.16128063911461	2709.773089682821	-3419.37781539037	82.11654425138167	2623.512363672105	-3544.991491134672	48.93042804065853	2663.940918214111	-3506.765285131943	41.56646002327194	2747.582165263389	-3330.067511995782	62.18352083537556	2675.367660665699	-3445.984617213862	492.1777382043801	2381.593837930558	-3416.0972332694	622.5801644650406	2284.051781109589	-3554.327406551532	626.4907607089965	2345.388221836086	-3527.157276464085	450.3593873698819	2288.450185886578	-3549.521353920595	426.562737735245	2412.675756694094	-3386.03631767411	186.5807801588402	2346.276586468517	-3452.777675660817	293.2754934647572	2283.741500661821	-3489.748951611728	200.0324064608329	2327.370117545012	-3391.759957167647	93.81430603027242	2299.013965849475	-3412.646692415581	87.40208586193886	2383.628404493575	-3530.194075332332	53.25668443652713	2340.4566649795	-3494.184158970143	48.44959658737115	2267.651793416635	-3322.27258081662	71.38755618020612	2347.000684024656	
41	21.19	-3530.764095773222	1301.517971712383	2471.766305469921	-3580.12256971139	1249.541546390697	2591.890375335215	-3619.176420303044	1159.257902071602	2471.106190662925	-3423.1486508071	866.4239599576581	2629.51473008081	-3421.528839703989	870.5339083699569	2348.138695747453	-3236.851652502224	964.0547780471646	2523.699448246109	-3231.694615231361	955.6246139407576	2433.656591418039	-3306.368542121804	858.839798329044	2699.757603164722	-3325.201421978598	820.796361703798	2275.25685601985	-3431.411864702797	646.1848058741971	2716.438062511068	-3558.802178734793	611.4778528625701	2656.363302834803	-3428.401062459121	503.3247456808537	2625.058011912008	-3534.363805941568	453.3547486926764	2719.952409269677	-3553.710215197548	442.759383707021	2589.756712160278	-3466.248389499637	293.5273817560693	2728.855030573404	-3493.57432731292	199.2762830227727	2683.16354778613	-3397.043487061516	199.4950161949408	2655.775768571625	-3405.474113463266	86.14939956306472	2709.751381175477	-3419.504757344705	82.1155357684152	2623.469703550139	-3545.060746261057	48.88588143656929	2663.958861963078	-3506.782946008278	41.55468563537087	2747.609932080861	-3330.116469424341	62.24050758353608	2675.337471511888	-3448.113561035032	490.1788506222106	2381.513229010476	-3416.214731362158	619.7826734140649	2283.856236821034	-3554.863353411932	625.4456893023935	2344.371957184568	-3529.159820514851	449.2766345060854	2287.795144836571	-3551.825449612988	425.6269466982193	2411.98802475939	-3386.81891679431	186.6617752403182	2346.146882254352	-3454.19410479225	292.8023255707523	2283.370926278368	-3490.627417561862	199.4536730334762	2327.130307504458	-3391.925479813554	93.80131834028305	2299.033057604553	-3412.830919495613	87.43161658027572	2383.647614884935	-3530.238446457319	53.24651752917031	2340.446769402771	-3494.205059913097	48.44244830341142	2267.646455917692	-3322.327487094297	71.40411985480759	2347.028396342957	
42	21.195	-3531.863750803827	1296.318145425411	2471.551934784574	-3581.246089003009	1244.420956823719	2591.695256140813	-3619.599742655247	1153.841472575012	2470.970445954688	-3422.364208140291	862.2552293718229	2629.397488708154	-3420.370427680651	866.6235123131988	2347.932639605301	-3236.149585904878	960.3564132894224	2523.911277683003	-3230.758433736712	951.8661794879159	2433.875906948785	-3305.715574275119	855.154003254746	2699.996071284296	-3323.759937209745	816.959674665677	2275.069494542759	-3431.824143196414	643.7226087214576	2716.654372672713	-3559.751273783916	610.516595926705	2656.817550266645	-3430.586896708649	501.0115504865824	2625.293405834658	-3536.849386848508	452.2990424069907	2720.424216828731	-3556.286123289152	441.7323680995984	2590.19957681746	-3467.909073311764	293.0272710878701	2729.113602210189	-3494.547929656816	198.6398186769588	2683.288560704425	-3398.045825078206	199.5499945901137	2655.893789957624	-3405.639472712127	86.13924111985682	2709.730759712612	-3419.629808875592	82.11412830426799	2623.425292364057	-3545.126188150877	48.84313224759477	2663.976127361675	-3506.800779152925	41.54742709749417	2747.634351357139	-3330.163136282603	62.29609858122026	2675.307517777522	-3450.206179732331	488.1742544144026	2381.445452613868	-3416.338261467678	616.9662595849509	2283.68126328287	-3555.366660840578	624.3754503645986	2343.411925551645	-3531.131071605878	448.1874388127574	2287.169535733613	-3554.073506542891	424.6725303339564	2411.335210597038	-3387.583525343476	186.7317620717145	2346.023413358628	-3455.585126149295	292.3234360344259	2283.018138707103	-3491.48181757367	198.8700311551062	2326.902663969701	-3392.082711209941	93.78154403756649	2299.05116697627	-3413.00518824383	87.45912628419462	2383.666859426947	-3530.276389090654	53.23371732651221	2340.438432497281	-3494.223100852703	48.43639055021916	2267.641070450834	-3322.38148145926	71.41685242361676	2347.054251360777	
